# OBJ generated by ONSHAPE BY PTC INC, 1.202 Units = meters
mtllib elevator-stage-2.mtl
g elevator stage 2
v -0.0889 0.0254 0 
v -0.1143 0.0254 0 
v -0.1143 0.0254 0.0254 
v -0.0889 0.0254 0.0254 
v -0.0889 -0.0254 0.0254 
v -0.0889 -0.0254 0 
v -0.1143 -0.0254 0.0254 
v -0.1143 -0.0254 0 
v 0.0889 0.0254 0.0254 
v 0.0889 -0.0254 0.0254 
v -0.1143 -0.0301625 0.0254 
v 0.1143 -0.0301625 0.0254 
v 0.1143 0.0301625 0.0254 
v 0.1143 0.0254 0.0254 
v -0.1143 0.0301625 0.0254 
v 0.1143 -0.0254 0.0254 
v 0.1143 0.0254 0 
v 0.0889 0.0254 0 
v 0.0889 -0.0254 0 
v 0.1143 -0.0254 0 
v 0.1143 -0.0254 0.2286 
v 0.1143 -0.0254 0.254 
v 0.1143 0.0254 0.2286 
v 0.1143 0.0301625 0.2286 
v 0.1143 -0.0301625 0.2286 
v 0.1143 0.0254 0.254 
v 0.0889 -0.0254 0.254 
v 0.0889 -0.0254 0.2286 
v 0.0889 0.0254 0.2286 
v 0.0889 0.0254 0.254 
v -0.0889 0.0254 0.2286 
v -0.0889 -0.0254 0.2286 
v -0.1143 -0.0301625 0.2286 
v -0.1143 0.0301625 0.2286 
v -0.1143 0.0254 0.2286 
v -0.1143 -0.0254 0.2286 
v -0.1143 0.0254 0.254 
v -0.1143 -0.0254 0.254 
v -0.0889 0.0254 0.254 
v -0.0889 -0.0254 0.254 
v -0.0121502 -0.0301625 0.156333 
v 0.0121502 -0.0301625 0.156333 
v -0.0293332 -0.0301625 0.11485 
v -0.0293332 -0.0301625 0.13915 
v -0.0121502 -0.0301625 0.0976668 
v 0.0121502 -0.0301625 0.0976668 
v 0.0293332 -0.0301625 0.13915 
v 0.0293332 -0.0301625 0.11485 
v -0.0293332 0.0301625 0.13915 
v -0.0293332 0.0301625 0.11485 
v 0.0121502 0.0301625 0.156333 
v -0.0121502 0.0301625 0.156333 
v 0.0293332 0.0301625 0.11485 
v 0.0293332 0.0301625 0.13915 
v -0.0121502 0.0301625 0.0976668 
v 0.0121502 0.0301625 0.0976668 
vn -1.82123e-16 1 0 
vn 1 1.83697e-16 0 
vn 1.83697e-16 -1 0 
vn 0 0 -1 
vn -1.82123e-16 1 0 
vn -1 -1.83697e-16 -5.4637e-16 
vn 0 0 -1 
vn 1.83697e-16 -1 0 
vn 1 1.83697e-16 0 
vn -1.82123e-16 1 0 
vn 0 0 1 
vn -1 -1.83697e-16 0 
vn -1.82123e-16 1 0 
vn 1.83697e-16 -1 0 
vn 1 1.83697e-16 0 
vn 0 0 1 
vn 1.83697e-16 -1 0 
vn -1.83697e-16 1 0 
vn -1 -1.83697e-16 1.42773e-16 
vn -0.707107 -1.29893e-16 0.707107 
vn 1.14219e-15 2.09816e-31 1 
vn 0.707107 1.29893e-16 0.707107 
vn 1 1.83697e-16 -4.2832e-16 
vn 0.707107 1.29893e-16 -0.707107 
vn 0 0 -1 
vn -0.707107 -1.29893e-16 -0.707107 
usemtl 0.917647_0.917647_0.917647_0.000000_0.000000
o mesh0
f 1//1 2//1 3//1 
f 3//1 4//1 1//1 
o mesh1
f 5//2 6//2 1//2 
f 1//2 4//2 5//2 
o mesh2
f 6//3 5//3 7//3 
f 7//3 8//3 6//3 
o mesh3
f 2//4 1//4 6//4 
f 6//4 8//4 2//4 
o mesh4
f 4//4 9//4 10//4 
f 11//4 7//4 5//4 
f 12//4 11//4 10//4 
f 5//4 10//4 11//4 
f 10//4 5//4 4//4 
f 13//4 14//4 9//4 
f 15//4 13//4 4//4 
f 9//4 4//4 13//4 
f 10//4 16//4 12//4 
f 4//4 3//4 15//4 
o mesh5
f 17//5 18//5 9//5 
f 9//5 14//5 17//5 
o mesh6
f 19//6 10//6 9//6 
f 9//6 18//6 19//6 
o mesh7
f 18//7 17//7 20//7 
f 20//7 19//7 18//7 
o mesh8
f 20//8 16//8 10//8 
f 10//8 19//8 20//8 
o mesh9
f 17//9 14//9 16//9 
f 14//9 21//9 16//9 
f 16//9 20//9 17//9 
f 12//9 16//9 21//9 
f 22//9 21//9 23//9 
f 13//9 24//9 23//9 
f 21//9 25//9 12//9 
f 23//9 21//9 13//9 
f 23//9 26//9 22//9 
f 14//9 13//9 21//9 
o mesh10
f 22//8 27//8 28//8 
f 28//8 21//8 22//8 
o mesh11
f 26//10 23//10 29//10 
f 29//10 30//10 26//10 
o mesh12
f 30//11 27//11 22//11 
f 22//11 26//11 30//11 
o mesh13
f 27//12 30//12 29//12 
f 29//12 28//12 27//12 
o mesh14
f 31//11 32//11 28//11 
f 25//11 21//11 28//11 
f 33//11 25//11 32//11 
f 28//11 32//11 25//11 
f 28//11 29//11 31//11 
f 34//11 35//11 31//11 
f 24//11 34//11 29//11 
f 31//11 29//11 34//11 
f 32//11 36//11 33//11 
f 29//11 23//11 24//11 
o mesh15
f 8//12 7//12 3//12 
f 7//12 35//12 3//12 
f 3//12 2//12 8//12 
f 15//12 3//12 35//12 
f 37//12 35//12 36//12 
f 11//12 33//12 36//12 
f 35//12 34//12 15//12 
f 36//12 35//12 11//12 
f 36//12 38//12 37//12 
f 7//12 11//12 35//12 
o mesh16
f 39//13 31//13 35//13 
f 35//13 37//13 39//13 
o mesh17
f 40//14 38//14 36//14 
f 36//14 32//14 40//14 
o mesh18
f 40//15 32//15 31//15 
f 31//15 39//15 40//15 
o mesh19
f 37//16 38//16 40//16 
f 40//16 39//16 37//16 
o mesh20
f 25//17 33//17 41//17 
f 41//17 42//17 25//17 
f 33//17 11//17 43//17 
f 33//17 44//17 41//17 
f 11//17 45//17 43//17 
f 43//17 44//17 33//17 
f 11//17 12//17 46//17 
f 46//17 45//17 11//17 
f 12//17 25//17 47//17 
f 12//17 48//17 46//17 
f 42//17 47//17 25//17 
f 47//17 48//17 12//17 
o mesh21
f 34//18 49//18 50//18 
f 24//18 51//18 52//18 
f 13//18 53//18 54//18 
f 15//18 55//18 56//18 
f 50//18 15//18 34//18 
f 52//18 34//18 24//18 
f 13//18 56//18 53//18 
f 50//18 55//18 15//18 
f 24//18 54//18 51//18 
f 56//18 13//18 15//18 
f 54//18 24//18 13//18 
f 52//18 49//18 34//18 
o mesh22
f 48//19 47//19 54//19 
f 54//19 53//19 48//19 
o mesh23
f 53//20 56//20 46//20 
f 46//20 48//20 53//20 
o mesh24
f 45//21 46//21 56//21 
f 56//21 55//21 45//21 
o mesh25
f 43//22 45//22 55//22 
f 55//22 50//22 43//22 
o mesh26
f 44//23 43//23 50//23 
f 50//23 49//23 44//23 
o mesh27
f 52//24 41//24 44//24 
f 44//24 49//24 52//24 
o mesh28
f 52//25 51//25 42//25 
f 42//25 41//25 52//25 
o mesh29
f 54//26 47//26 42//26 
f 42//26 51//26 54//26 
