# OBJ generated by ONSHAPE BY PTC INC, 1.202 Units = meters
mtllib ground-intake-far-right-roller.mtl
g ground intake far right roller
v 0.00366617 -0.00635 0 
v -0.00366617 -0.00635 0 
v -0.00366617 -0.00635 -0.009525 
v 0.00366617 -0.00635 -0.009525 
v 0.00733235 0 0 
v 0.00733235 0 -0.009525 
v 0.00366617 0.00635 0 
v 0.00366617 0.00635 -0.009525 
v -0.00366617 0.00635 0 
v -0.00733235 4.996e-16 0 
v -0.00366617 0.00635 -0.009525 
v -0.00733235 4.996e-16 -0.009525 
v -0.0185941 0.0185941 -0.009525 
v -0.0254 0.00680591 -0.009525 
v -0.0254 -0.00680591 -0.009525 
v -0.0185941 -0.0185941 -0.009525 
v -0.00680591 -0.0254 -0.009525 
v 0.00680591 -0.0254 -0.009525 
v 0.0185941 -0.0185941 -0.009525 
v 0.0254 -0.00680591 -0.009525 
v 0.0254 0.00680591 -0.009525 
v 0.0185941 0.0185941 -0.009525 
v 0.00680591 0.0254 -0.009525 
v -0.00680591 0.0254 -0.009525 
v -0.0185941 -0.0185941 -0.034925 
v -0.00680591 -0.0254 -0.034925 
v 0.00680591 -0.0254 -0.034925 
v 0.0185941 -0.0185941 -0.034925 
v 0.0254 -0.00680591 -0.034925 
v 0.0254 0.00680591 -0.034925 
v 0.0185941 0.0185941 -0.034925 
v 0.00680591 0.0254 -0.034925 
v -0.00680591 0.0254 -0.034925 
v -0.0185941 0.0185941 -0.034925 
v -0.0254 0.00680591 -0.034925 
v -0.0254 -0.00680591 -0.034925 
v 0.00366617 0.00635 -0.034925 
v -0.00366617 0.00635 -0.034925 
v 0.00733235 0 -0.034925 
v 0.00366617 -0.00635 -0.034925 
v -0.00366617 -0.00635 -0.034925 
v -0.00733235 4.996e-16 -0.034925 
v -0.00366617 -0.00635 -0.04445 
v -0.00733235 4.996e-16 -0.04445 
v 0.00366617 0.00635 -0.04445 
v 0.00733235 0 -0.04445 
v 0.00366617 -0.00635 -0.04445 
v -0.00366617 0.00635 -0.04445 
vn 0 -1 0 
vn 0.866025 -0.5 0 
vn 0.866025 0.5 0 
vn 0 0 1 
vn 0 1 0 
vn -0.866025 0.5 0 
vn -0.866025 -0.5 0 
vn 0 0 1 
vn -0.5 -0.866025 0 
vn 0 -1 0 
vn 0.5 -0.866025 0 
vn 0.866025 -0.5 0 
vn 1 0 0 
vn 0.866025 0.5 0 
vn 0.5 0.866025 0 
vn 0 1 0 
vn -0.5 0.866025 0 
vn -0.866025 0.5 0 
vn -1 0 0 
vn -0.866025 -0.5 0 
vn 0 0 -1 
vn -0.866025 0.5 0 
vn 0 1 0 
vn 0.866025 0.5 0 
vn 0.866025 -0.5 0 
vn 0 -1 0 
usemtl 0.145098_0.145098_0.145098_0.000000_0.000000
o mesh0
f 1//1 2//1 3//1 
f 3//1 4//1 1//1 
o mesh1
f 5//2 1//2 4//2 
f 4//2 6//2 5//2 
o mesh2
f 7//3 5//3 6//3 
f 6//3 8//3 7//3 
o mesh3
f 7//4 9//4 10//4 
f 7//4 2//4 1//4 
f 1//4 5//4 7//4 
f 10//4 2//4 7//4 
o mesh4
f 9//5 7//5 8//5 
f 8//5 11//5 9//5 
o mesh5
f 10//6 9//6 11//6 
f 11//6 12//6 10//6 
o mesh6
f 2//7 10//7 12//7 
f 12//7 3//7 2//7 
usemtl 0.086275_0.317647_0.690196_0.000000_0.000000
o mesh7
f 13//8 14//8 12//8 
f 15//8 16//8 3//8 
f 17//8 18//8 4//8 
f 19//8 20//8 6//8 
f 21//8 22//8 8//8 
f 23//8 24//8 11//8 
f 11//8 24//8 13//8 
f 12//8 14//8 15//8 
f 3//8 16//8 17//8 
f 4//8 18//8 19//8 
f 6//8 20//8 21//8 
f 8//8 22//8 23//8 
f 3//8 12//8 15//8 
f 6//8 4//8 19//8 
f 11//8 8//8 23//8 
f 4//8 3//8 17//8 
f 12//8 11//8 13//8 
f 8//8 6//8 21//8 
o mesh8
f 16//9 25//9 26//9 
f 26//9 17//9 16//9 
o mesh9
f 17//10 26//10 27//10 
f 27//10 18//10 17//10 
o mesh10
f 18//11 27//11 28//11 
f 28//11 19//11 18//11 
o mesh11
f 19//12 28//12 29//12 
f 29//12 20//12 19//12 
o mesh12
f 20//13 29//13 30//13 
f 30//13 21//13 20//13 
o mesh13
f 21//14 30//14 31//14 
f 31//14 22//14 21//14 
o mesh14
f 22//15 31//15 32//15 
f 32//15 23//15 22//15 
o mesh15
f 23//16 32//16 33//16 
f 33//16 24//16 23//16 
o mesh16
f 24//17 33//17 34//17 
f 34//17 13//17 24//17 
o mesh17
f 13//18 34//18 35//18 
f 35//18 14//18 13//18 
o mesh18
f 14//19 35//19 36//19 
f 36//19 15//19 14//19 
o mesh19
f 15//20 36//20 25//20 
f 25//20 16//20 15//20 
o mesh20
f 32//21 37//21 38//21 
f 30//21 39//21 37//21 
f 28//21 40//21 39//21 
f 26//21 41//21 40//21 
f 38//21 33//21 32//21 
f 37//21 31//21 30//21 
f 39//21 29//21 28//21 
f 40//21 27//21 26//21 
f 30//21 29//21 39//21 
f 26//21 25//21 41//21 
f 36//21 42//21 41//21 
f 34//21 38//21 42//21 
f 28//21 27//21 40//21 
f 41//21 25//21 36//21 
f 42//21 35//21 34//21 
f 36//21 35//21 42//21 
f 32//21 31//21 37//21 
f 34//21 33//21 38//21 
usemtl 0.145098_0.145098_0.145098_0.000000_0.000000
o mesh21
f 43//20 41//20 42//20 
f 42//20 44//20 43//20 
o mesh22
f 45//21 46//21 47//21 
f 45//21 43//21 44//21 
f 44//21 48//21 45//21 
f 47//21 43//21 45//21 
o mesh23
f 44//22 42//22 38//22 
f 38//22 48//22 44//22 
o mesh24
f 48//23 38//23 37//23 
f 37//23 45//23 48//23 
o mesh25
f 45//24 37//24 39//24 
f 39//24 46//24 45//24 
o mesh26
f 46//25 39//25 40//25 
f 40//25 47//25 46//25 
o mesh27
f 47//26 40//26 41//26 
f 41//26 43//26 47//26 
