# OBJ generated by ONSHAPE BY PTC INC, 1.202 Units = meters
mtllib ground-intake-middle-right-roller.mtl
g ground intake middle right roller
v 0.00366617 0.00635 0 
v 0.00733235 4.996e-16 0 
v 0.00733235 4.996e-16 -0.009525 
v 0.00366617 0.00635 -0.009525 
v -0.00366617 0.00635 0 
v -0.00366617 0.00635 -0.009525 
v -0.00733235 0 0 
v -0.00733235 0 -0.009525 
v -0.00366617 -0.00635 0 
v 0.00366617 -0.00635 0 
v -0.00366617 -0.00635 -0.009525 
v 0.00366617 -0.00635 -0.009525 
v 0.00680591 0.0254 -0.009525 
v -0.00680591 0.0254 -0.009525 
v -0.00680591 -0.0254 -0.009525 
v 0.00680591 -0.0254 -0.009525 
v 0.0185941 0.0185941 -0.009525 
v -0.0185941 0.0185941 -0.009525 
v -0.0254 0.00680591 -0.009525 
v -0.0254 -0.00680591 -0.009525 
v -0.0185941 -0.0185941 -0.009525 
v 0.0185941 -0.0185941 -0.009525 
v 0.0254 -0.00680591 -0.009525 
v 0.0254 0.00680591 -0.009525 
v 0.0254 0.00680591 -0.034925 
v 0.0185941 0.0185941 -0.034925 
v 0.00680591 0.0254 -0.034925 
v -0.00680591 0.0254 -0.034925 
v -0.0185941 0.0185941 -0.034925 
v -0.0254 0.00680591 -0.034925 
v -0.0254 -0.00680591 -0.034925 
v -0.0185941 -0.0185941 -0.034925 
v -0.00680591 -0.0254 -0.034925 
v 0.00680591 -0.0254 -0.034925 
v 0.0185941 -0.0185941 -0.034925 
v 0.0254 -0.00680591 -0.034925 
v 0.00366617 0.00635 -0.034925 
v -0.00366617 0.00635 -0.034925 
v 0.00733235 4.996e-16 -0.034925 
v 0.00366617 -0.00635 -0.034925 
v -0.00366617 -0.00635 -0.034925 
v -0.00733235 0 -0.034925 
v 0.00733235 4.996e-16 -0.04445 
v 0.00366617 -0.00635 -0.04445 
v -0.00366617 -0.00635 -0.04445 
v 0.00366617 0.00635 -0.04445 
v -0.00733235 0 -0.04445 
v -0.00366617 0.00635 -0.04445 
vn 0.866025 0.5 0 
vn 0 1 0 
vn -0.866025 0.5 0 
vn 0 0 1 
vn -0.866025 -0.5 0 
vn 0 -1 0 
vn 0.866025 -0.5 0 
vn 0 0 1 
vn 0.866025 0.5 0 
vn 0.5 0.866025 0 
vn 0 1 0 
vn -0.5 0.866025 0 
vn -0.866025 0.5 0 
vn -1 0 0 
vn -0.866025 -0.5 0 
vn -0.5 -0.866025 0 
vn 0 -1 0 
vn 0.5 -0.866025 0 
vn 0.866025 -0.5 0 
vn 1 0 0 
vn 0 0 -1 
vn 0.866025 -0.5 0 
vn 0 -1 0 
vn -0.866025 -0.5 0 
vn -0.866025 0.5 0 
vn 0 1 0 
vn 0.866025 0.5 0 
usemtl 0.145098_0.145098_0.145098_0.000000_0.000000
o mesh0
f 1//1 2//1 3//1 
f 3//1 4//1 1//1 
o mesh1
f 5//2 1//2 4//2 
f 4//2 6//2 5//2 
o mesh2
f 7//3 5//3 6//3 
f 6//3 8//3 7//3 
o mesh3
f 9//4 1//4 5//4 
f 9//4 10//4 2//4 
f 2//4 1//4 9//4 
f 5//4 7//4 9//4 
o mesh4
f 9//5 7//5 8//5 
f 8//5 11//5 9//5 
o mesh5
f 10//6 9//6 11//6 
f 11//6 12//6 10//6 
o mesh6
f 2//7 10//7 12//7 
f 12//7 3//7 2//7 
usemtl 0.086275_0.317647_0.690196_0.000000_0.000000
o mesh7
f 13//8 14//8 6//8 
f 15//8 16//8 12//8 
f 17//8 4//8 3//8 
f 4//8 17//8 13//8 
f 18//8 19//8 8//8 
f 20//8 21//8 11//8 
f 12//8 11//8 15//8 
f 6//8 4//8 13//8 
f 6//8 14//8 18//8 
f 8//8 19//8 20//8 
f 11//8 21//8 15//8 
f 8//8 6//8 18//8 
f 16//8 22//8 12//8 
f 23//8 3//8 12//8 
f 11//8 8//8 20//8 
f 12//8 22//8 23//8 
f 23//8 24//8 3//8 
f 3//8 24//8 17//8 
o mesh8
f 24//9 25//9 26//9 
f 26//9 17//9 24//9 
o mesh9
f 17//10 26//10 27//10 
f 27//10 13//10 17//10 
o mesh10
f 13//11 27//11 28//11 
f 28//11 14//11 13//11 
o mesh11
f 14//12 28//12 29//12 
f 29//12 18//12 14//12 
o mesh12
f 18//13 29//13 30//13 
f 30//13 19//13 18//13 
o mesh13
f 19//14 30//14 31//14 
f 31//14 20//14 19//14 
o mesh14
f 20//15 31//15 32//15 
f 32//15 21//15 20//15 
o mesh15
f 21//16 32//16 33//16 
f 33//16 15//16 21//16 
o mesh16
f 15//17 33//17 34//17 
f 34//17 16//17 15//17 
o mesh17
f 16//18 34//18 35//18 
f 35//18 22//18 16//18 
o mesh18
f 22//19 35//19 36//19 
f 36//19 23//19 22//19 
o mesh19
f 23//20 36//20 25//20 
f 25//20 24//20 23//20 
o mesh20
f 27//21 37//21 38//21 
f 38//21 28//21 27//21 
f 26//21 25//21 39//21 
f 36//21 35//21 40//21 
f 33//21 41//21 40//21 
f 29//21 38//21 42//21 
f 39//21 37//21 26//21 
f 39//21 25//21 36//21 
f 40//21 35//21 34//21 
f 31//21 42//21 41//21 
f 42//21 30//21 29//21 
f 40//21 39//21 36//21 
f 40//21 34//21 33//21 
f 41//21 32//21 31//21 
f 27//21 26//21 37//21 
f 31//21 30//21 42//21 
f 33//21 32//21 41//21 
f 29//21 28//21 38//21 
usemtl 0.145098_0.145098_0.145098_0.000000_0.000000
o mesh21
f 43//22 39//22 40//22 
f 40//22 44//22 43//22 
o mesh22
f 45//21 46//21 43//21 
f 45//21 47//21 48//21 
f 48//21 46//21 45//21 
f 43//21 44//21 45//21 
o mesh23
f 44//23 40//23 41//23 
f 41//23 45//23 44//23 
o mesh24
f 45//24 41//24 42//24 
f 42//24 47//24 45//24 
o mesh25
f 47//25 42//25 38//25 
f 38//25 48//25 47//25 
o mesh26
f 48//26 38//26 37//26 
f 37//26 46//26 48//26 
o mesh27
f 46//27 37//27 39//27 
f 39//27 43//27 46//27 
