# OBJ generated by ONSHAPE BY PTC INC, 1.202 Units = meters
mtllib ground-intake-far-left-roller.mtl
g ground intake far left roller
v 0.00366617 0.00635 0 
v 0.00733235 -4.996e-16 0 
v 0.00733235 -4.996e-16 -0.009525 
v 0.00366617 0.00635 -0.009525 
v -0.00366617 0.00635 0 
v -0.00366617 0.00635 -0.009525 
v -0.00733235 0 0 
v -0.00733235 0 -0.009525 
v -0.00366617 -0.00635 0 
v 0.00366617 -0.00635 0 
v -0.00366617 -0.00635 -0.009525 
v 0.00366617 -0.00635 -0.009525 
v -0.0185941 0.0185941 -0.009525 
v -0.0254 0.00680591 -0.009525 
v -0.0254 -0.00680591 -0.009525 
v -0.0185941 -0.0185941 -0.009525 
v -0.00680591 -0.0254 -0.009525 
v 0.00680591 -0.0254 -0.009525 
v 0.0185941 -0.0185941 -0.009525 
v 0.0254 -0.00680591 -0.009525 
v 0.0185941 0.0185941 -0.009525 
v 0.00680591 0.0254 -0.009525 
v -0.00680591 0.0254 -0.009525 
v 0.0254 0.00680591 -0.009525 
v 0.0185941 -0.0185941 -0.034925 
v 0.0254 -0.00680591 -0.034925 
v 0.0254 0.00680591 -0.034925 
v 0.0185941 0.0185941 -0.034925 
v 0.00680591 0.0254 -0.034925 
v -0.00680591 0.0254 -0.034925 
v -0.0185941 0.0185941 -0.034925 
v -0.0254 0.00680591 -0.034925 
v -0.0254 -0.00680591 -0.034925 
v -0.0185941 -0.0185941 -0.034925 
v -0.00680591 -0.0254 -0.034925 
v 0.00680591 -0.0254 -0.034925 
v 0.00366617 0.00635 -0.034925 
v -0.00366617 0.00635 -0.034925 
v 0.00733235 -4.996e-16 -0.034925 
v 0.00366617 -0.00635 -0.034925 
v -0.00366617 -0.00635 -0.034925 
v -0.00733235 0 -0.034925 
v 0.00733235 -4.996e-16 -0.04445 
v 0.00366617 -0.00635 -0.04445 
v 0.00366617 0.00635 -0.04445 
v -0.00366617 -0.00635 -0.04445 
v -0.00733235 0 -0.04445 
v -0.00366617 0.00635 -0.04445 
vn 0.866025 0.5 0 
vn 0 1 0 
vn -0.866025 0.5 0 
vn 0 0 1 
vn -0.866025 -0.5 0 
vn 0 -1 0 
vn 0.866025 -0.5 0 
vn 0 0 1 
vn 1 0 0 
vn 0.866025 0.5 0 
vn 0.5 0.866025 0 
vn 0 1 0 
vn -0.5 0.866025 0 
vn -0.866025 0.5 0 
vn -1 0 0 
vn -0.866025 -0.5 0 
vn -0.5 -0.866025 0 
vn 0 -1 0 
vn 0.5 -0.866025 0 
vn 0 0 -1 
vn 0.866025 -0.5 0 
vn 0 -1 0 
vn -0.866025 -0.5 0 
vn -0.866025 0.5 0 
vn 0 1 0 
vn 0.866025 0.5 0 
usemtl 0.145098_0.145098_0.145098_0.000000_0.000000
o mesh0
f 1//1 2//1 3//1 
f 3//1 4//1 1//1 
o mesh1
f 5//2 1//2 4//2 
f 4//2 6//2 5//2 
o mesh2
f 7//3 5//3 6//3 
f 6//3 8//3 7//3 
o mesh3
f 1//4 5//4 7//4 
f 1//4 9//4 10//4 
f 10//4 2//4 1//4 
f 7//4 9//4 1//4 
o mesh4
f 9//5 7//5 8//5 
f 8//5 11//5 9//5 
o mesh5
f 10//6 9//6 11//6 
f 11//6 12//6 10//6 
o mesh6
f 2//7 10//7 12//7 
f 12//7 3//7 2//7 
usemtl 0.086275_0.317647_0.690196_0.000000_0.000000
o mesh7
f 13//8 14//8 8//8 
f 15//8 16//8 11//8 
f 17//8 18//8 12//8 
f 19//8 20//8 3//8 
f 21//8 4//8 3//8 
f 22//8 23//8 6//8 
f 6//8 23//8 13//8 
f 8//8 14//8 15//8 
f 11//8 16//8 17//8 
f 12//8 18//8 19//8 
f 3//8 20//8 24//8 
f 4//8 21//8 22//8 
f 11//8 8//8 15//8 
f 3//8 12//8 19//8 
f 6//8 4//8 22//8 
f 12//8 11//8 17//8 
f 8//8 6//8 13//8 
f 3//8 24//8 21//8 
o mesh8
f 19//7 25//7 26//7 
f 26//7 20//7 19//7 
o mesh9
f 20//9 26//9 27//9 
f 27//9 24//9 20//9 
o mesh10
f 24//10 27//10 28//10 
f 28//10 21//10 24//10 
o mesh11
f 21//11 28//11 29//11 
f 29//11 22//11 21//11 
o mesh12
f 22//12 29//12 30//12 
f 30//12 23//12 22//12 
o mesh13
f 23//13 30//13 31//13 
f 31//13 13//13 23//13 
o mesh14
f 13//14 31//14 32//14 
f 32//14 14//14 13//14 
o mesh15
f 14//15 32//15 33//15 
f 33//15 15//15 14//15 
o mesh16
f 15//16 33//16 34//16 
f 34//16 16//16 15//16 
o mesh17
f 16//17 34//17 35//17 
f 35//17 17//17 16//17 
o mesh18
f 17//18 35//18 36//18 
f 36//18 18//18 17//18 
o mesh19
f 18//19 36//19 25//19 
f 25//19 19//19 18//19 
o mesh20
f 29//20 37//20 38//20 
f 28//20 27//20 39//20 
f 25//20 40//20 39//20 
f 35//20 41//20 40//20 
f 31//20 38//20 42//20 
f 38//20 30//20 29//20 
f 39//20 37//20 28//20 
f 39//20 26//20 25//20 
f 40//20 36//20 35//20 
f 33//20 42//20 41//20 
f 42//20 32//20 31//20 
f 27//20 26//20 39//20 
f 35//20 34//20 41//20 
f 41//20 34//20 33//20 
f 29//20 28//20 37//20 
f 33//20 32//20 42//20 
f 25//20 36//20 40//20 
f 31//20 30//20 38//20 
usemtl 0.145098_0.145098_0.145098_0.000000_0.000000
o mesh21
f 43//21 39//21 40//21 
f 40//21 44//21 43//21 
o mesh22
f 45//20 43//20 44//20 
f 45//20 46//20 47//20 
f 47//20 48//20 45//20 
f 44//20 46//20 45//20 
o mesh23
f 44//22 40//22 41//22 
f 41//22 46//22 44//22 
o mesh24
f 46//23 41//23 42//23 
f 42//23 47//23 46//23 
o mesh25
f 47//24 42//24 38//24 
f 38//24 48//24 47//24 
o mesh26
f 48//25 38//25 37//25 
f 37//25 45//25 48//25 
o mesh27
f 45//26 37//26 39//26 
f 39//26 43//26 45//26 
